<svg xmlns="http://www.w3.org/2000/svg" viewBox="0 0 161 40" fill="none">
  <!-- IHAVENO (Light) -->
  <path d="M4.17 28L2.04 28L2.04 5.32L4.17 5.32L4.17 28ZM10.33 28L8.20 28L8.20 5.32L10.33 5.32L10.33 15.37L17.47 15.37L17.47 5.32L19.60 5.32L19.60 28L17.47 28L17.47 16.97L10.33 16.97L10.33 28ZM24.42 28L22.34 28L27.13 5.32L29.37 5.32L34.19 28L32.09 28L30.97 21.92L25.56 21.92L24.42 28ZM28.28 8.15L25.87 20.38L30.69 20.38L28.28 8.15ZM41.72 28L39.79 28L34.47 5.32L36.51 5.32L40.80 24.11L44.83 5.32L46.84 5.32L41.72 28ZM57.71 28L49.45 28L49.45 5.32L57.65 5.32L57.65 6.97L51.60 6.97L51.60 15.48L56.53 15.48L56.53 17.05L51.60 17.05L51.60 26.40L57.71 26.40L57.71 28ZM62.47 28L60.62 28L60.62 5.32L62.16 5.32L69.38 22.93L69.38 5.32L71.23 5.32L71.23 28L69.72 28L62.47 10.19L62.47 28ZM80.56 28.28L80.56 28.28Q78.29 28.28 77.01 27.40Q75.74 26.52 75.22 24.93Q74.70 23.35 74.70 21.31L74.70 21.31L74.70 11.90Q74.70 9.83 75.25 8.30Q75.80 6.78 77.07 5.94Q78.34 5.10 80.56 5.10L80.56 5.10Q82.74 5.10 84.01 5.95Q85.29 6.80 85.82 8.33Q86.35 9.86 86.35 11.90L86.35 11.90L86.35 21.34Q86.35 23.38 85.83 24.95Q85.32 26.52 84.04 27.40Q82.77 28.28 80.56 28.28ZM80.56 26.57L80.56 26.57Q82.04 26.57 82.82 25.97Q83.61 25.37 83.90 24.29Q84.20 23.21 84.20 21.78L84.20 21.78L84.20 11.51Q84.20 10.08 83.90 9.02Q83.61 7.95 82.82 7.38Q82.04 6.80 80.56 6.80L80.56 6.80Q79.04 6.80 78.25 7.38Q77.45 7.95 77.15 9.02Q76.86 10.08 76.86 11.51L76.86 11.51L76.86 21.78Q76.86 23.21 77.15 24.29Q77.45 25.37 78.25 25.97Q79.04 26.57 80.56 26.57Z" fill="#111827"/>
  <!-- MENU (Medium) -->
  <path d="M92.65 28L89.54 28L89.94 5.32L94.22 5.32L97.44 21.03L100.80 5.32L104.94 5.32L105.36 28L102.28 28L101.95 12.24L98.73 28L96.24 28L92.96 12.18L92.65 28ZM118.30 28L108.72 28L108.72 5.32L118.24 5.32L118.24 8.23L112.87 8.23L112.87 14.76L117.10 14.76L117.10 17.64L112.87 17.64L112.87 25.14L118.30 25.14L118.30 28ZM124.24 28L120.71 28L120.71 5.32L123.59 5.32L129.11 18.26L129.11 5.32L132.52 5.32L132.52 28L129.78 28L124.24 14.45L124.24 28ZM142.18 28.31L142.18 28.31Q139.64 28.31 138.25 27.38Q136.86 26.46 136.33 24.75Q135.80 23.04 135.80 20.66L135.80 20.66L135.80 5.32L139.83 5.32L139.83 21.14Q139.83 22.20 139.99 23.14Q140.14 24.08 140.64 24.65Q141.15 25.23 142.18 25.23L142.18 25.23Q143.25 25.23 143.75 24.65Q144.26 24.08 144.41 23.14Q144.56 22.20 144.56 21.14L144.56 21.14L144.56 5.32L148.57 5.32L148.57 20.66Q148.57 23.04 148.04 24.75Q147.50 26.46 146.12 27.38Q144.73 28.31 142.18 28.31Z" fill="#111827"/>
  <!-- Strikethrough line over MENU -->
  <line x1="85.892" y1="17" x2="152.108" y2="17" stroke="#111827" stroke-width="2.5"/>
</svg>